<?xml version="1.0" encoding="UTF-8"?>
<svg id="Layer_2" data-name="Layer 2" xmlns="http://www.w3.org/2000/svg" viewBox="0 0 581.62 239.62">
  <g id="Layer_1-2" data-name="Layer 1">
    <g id="Layer_2-2" data-name="Layer 2">
      <g>
        <path d="M383.21,100.08c-22.69-8.11-29.41-33.97-2.18-33.97,19.71,0,24.95,11.34,26.33,17.6v17.43c0,.28,.22,.5,.5,.5,.22,0,.41-.15,.47-.35h.04V62.15h-.01v-.2c0-.28-.22-.5-.5-.5s-.5,.22-.5,.5v4.47c-6.37,4.71-34.69-12.49-48.98,8.57-6.04,9.21-8.98,24.51-2.38,33.92,11.55,16.49,50.68,14.52,46.03,30.93-8.34,29.3-40.22,23.92-51.62,23.05-4.54-1.02-9.57-4.81-9.65-10.91l-.04-3.79v-1.66h-.02v.24l-.45-40.01c0-23.85-24.28-41.56-48.99-41.52-5.63,0-14.51,2.66-19.59,11.39l.2-9.75h.04v-1h-36.66c-.28,0-.5,.22-.5,.5s.22,.5,.5,.5h4.06c4.3,1.32,8.72,5.04,8.72,10.8v-10.8h0v94.61s0,0,0,0v-8.72c0,6.07-4.92,9.88-9.42,10.98h-8.58c-.04-.09-.11-.17-.22-.17h-1.15s0,0,0,0c-.09-.05-.19-.06-.29-.07-.17-.02-.34-.03-.5-.05-1.36-.15-2.72-.37-3.97-.95-1.96-.88-3.43-2.06-4.73-3.78-1.5-1.98-2.42-4.19-2.42-6.7,0,0,0,9.19-.01,11.06V65.26h0v-.09h-2.66c-.07-.03-.14-.05-.21-.05h-37.77c-.28,0-.5,.22-.5,.5s.22,.5,.5,.5h3.77c.07,.03,.14,.05,.21,.05h4.47c4.21,1.34,8.47,4.99,8.56,10.57v72.21c-3.91,7.77-9.97,13.69-19.57,13.69-21.15,0-26.26-23.25-26.26-37.6,0-12.9-.16-52.68-.16-58.65h7.42c.28,0,.5-.22,.5-.5s-.22-.5-.5-.5h-37.77c-.28,0-.5,.22-.5,.5s.22,.5,.5,.5h7.14l.62,56.57c0,23.85,24.29,41.55,49,41.51,3.67,0,7.36-1.01,10.59-2.72,1.74-.92,3.36-2.07,4.81-3.4,.78-.73,1.5-1.51,2.17-2.33,.49-.6,.87-1.26,1.3-1.89,.09-.14,.35-.64,.55-.82,.03,.04,.06,.08,.1,.12,0,.02-.01,.04-.01,.06,2.72,5.31,9.29,10.32,21.54,11.02,.05,.02,.1,.03,.16,.03h27.25c.06,0,.11-.01,.16-.03l6.17-.02s.01,0,.02,0c1.38,.08,2.78,0,4.15-.26,.02,0,.04,0,.05,0,.18-.03,.36-.06,.53-.09,.75-.13,1.49-.29,2.23-.47,3.17-.78,5.89-1.83,8.67-3.49,2.51-1.51,4.84-3.45,6.26-5.9,.79-1.37,1.03-3.16,1.43-4.8,.01-.06,.03-.11,.05-.17V80.73c3.89-7.76,9.96-13.69,19.56-13.69,21.14,0,26.26,23.26,26.26,37.6,0,7.1,.05,22.38,.09,35.66,.04,12.77,10.36,23.1,23.12,23.21v.05s30.8,3.17,55.82-1.58c34.48-7.24,48.11-51.1-13.3-61.9Z"/>
        <path d="M557.98,0h0s-12.31,.01-12.31,.01c-.28,0-.5,.22-.5,.5s.22,.5,.5,.5h3.57c4.3,1.31,8.74,5.03,8.74,10.8V1.01h0V163.48h0v-10.78c0,5.74-4.39,9.44-8.66,10.78h-10.37c-.32-.03-.63-.08-.94-.14-.15-.03-.3-.06-.45-.1-.01,0-.02,0-.03,0-.11-.02-.22-.05-.33-.08-.18-.05-.36-.11-.54-.16-1.02-.33-2.02-.68-2.98-1.19-.85-.45-1.65-.99-2.39-1.61-.75-.63-1.42-1.36-1.99-2.16-.58-.82-1.05-1.73-1.37-2.69-.35-1.03-.52-2.11-.53-3.19,0-.04,0-.08,0-.12,0,0,0,9.17-.03,11.06V66.07h0v-1h-36.66c-.28,0-.5,.22-.5,.5s.22,.5,.5,.5h4.17c4.28,1.26,8.76,4.94,8.85,10.66v72.21c-3.92,7.76-9.97,13.68-19.56,13.68-21.16,0-26.26-23.25-26.26-37.6,0-12.94-.15-53.04-.15-58.72h6.91c.28,0,.5-.22,.5-.5s-.22-.5-.5-.5h-37.42c-.28,0-.5,.22-.5,.5s.22,.5,.5,.5h7.27l.64,56.63c0,23.86,24.28,41.57,48.99,41.52,5.64,0,14.51-2.65,19.59-11.39v.05l.03,.03c.26,.59,4.18,8.63,17.94,10.8,1.9,.3,3.99,.49,6.27,.53h0s1.36,0,1.36,0c.18,0,.36,0,.54,0h0s16.04,0,16.04,0h0s12.07,0,12.07,0h0s23.63,0,23.63,0v-.13h.01V0h-23.64Z"/>
        <path d="M110.41,65.54h-36.96c-.28,0-.5,.22-.5,.5s.22,.5,.5,.5h14.43s2.51,0,2.51,0c3,.92,6.8,3.43,6.07,8.51l-19.77,53.1-24.13-61.61h9.02s.02,0,.02,0c.28,0,.5-.22,.5-.5s-.22-.5-.5-.5H20.68c-.28,0-.5,.22-.5,.5s.22,.5,.5,.5h.19v.02h6.66l36.68,94.91-17.38,44.79c-1.26,3.01-6.28,13.09-17.45,15.62-8.56,1.94-15.54-1.73-16.9-2.48-5.19-2.86-8-6.9-9.2-8.89-4.41,6.34-4.02,13.61-.85,19.29,4.9,8.78,14.79,9.71,15.85,9.78,9.81,.66,18.5-6.06,23.91-18.36,1.7-4.48,3.4-8.97,5.1-13.45l17.98-46.31,.1,.04,2.52-6.78,3.35-8.6-.12-.05,26.88-72.23c1.63-2.73,4.49-6.09,8.71-7.27h3.71v-.02h.01c.28,0,.5-.22,.5-.5s-.22-.5-.5-.5Z"/>
      </g>
    </g>
  </g>
</svg>